M48
;GenerationSoftware,Autodesk,EAGLE,9.1.3*%
;CreationDate,2019-06-09T19:50:33Z*%
FMAT,2
ICI,OFF
INCH,TZ,00.0000
T3C0.0138
T2C0.0276
T1C0.0400
%
G90
M72
T1
X14567Y10039
X13567Y10039
X21604Y3937
X21704Y4937
X21604Y5937
X21704Y6937
X21604Y7937
T2
X8071Y8661
X11811Y8661
T3
X17323Y7480
X18150Y4331
X12795Y10197
X10591Y7559
X10433Y10039
X6929Y5866
X14843Y4409
X16614Y6378
X16535Y6890
X19488Y7677
X16732Y5118
X16929Y6102
M30