G04 EAGLE Gerber X2 export*
%TF.Part,Single*%
%TF.FileFunction,Copper,L2,Bot,Mixed*%
%TF.FilePolarity,Positive*%
%TF.GenerationSoftware,Autodesk,EAGLE,9.1.3*%
%TF.CreationDate,2019-06-09T19:50:33Z*%
G75*
%MOIN*%
%FSLAX36Y36*%
%LPD*%
%AMOC8*
5,1,8,0,0,1.08239X$1,22.5*%
G01*
%ADD10C,0.074000*%
%ADD11C,0.041339*%
%ADD12C,0.032000*%
%ADD13C,0.023780*%
%ADD14C,0.013000*%

G36*
X1073905Y310297D02*
X1073905Y310297D01*
X1074090Y310287D01*
X1074616Y310375D01*
X1075147Y310433D01*
X1075322Y310493D01*
X1075505Y310524D01*
X1075999Y310724D01*
X1076505Y310897D01*
X1076663Y310993D01*
X1076834Y311063D01*
X1077097Y311258D01*
X1077729Y311644D01*
X1078114Y312016D01*
X1078355Y312196D01*
X1105107Y338948D01*
X1105222Y339092D01*
X1105361Y339216D01*
X1105671Y339651D01*
X1106004Y340067D01*
X1106086Y340233D01*
X1106194Y340384D01*
X1106401Y340875D01*
X1106637Y341355D01*
X1106680Y341535D01*
X1106752Y341705D01*
X1106800Y342029D01*
X1106974Y342749D01*
X1106983Y343284D01*
X1107027Y343582D01*
X1107027Y773938D01*
X1115825Y782737D01*
X1423545Y782737D01*
X1432343Y773938D01*
X1432343Y343582D01*
X1432363Y343398D01*
X1432354Y343213D01*
X1432442Y342687D01*
X1432500Y342156D01*
X1432560Y341981D01*
X1432591Y341798D01*
X1432791Y341303D01*
X1432964Y340798D01*
X1433060Y340640D01*
X1433130Y340469D01*
X1433325Y340206D01*
X1433711Y339574D01*
X1434083Y339189D01*
X1434263Y338948D01*
X1461015Y312196D01*
X1461158Y312081D01*
X1461283Y311942D01*
X1461718Y311632D01*
X1462134Y311299D01*
X1462300Y311217D01*
X1462451Y311109D01*
X1462942Y310902D01*
X1463422Y310666D01*
X1463602Y310623D01*
X1463772Y310551D01*
X1464096Y310503D01*
X1464816Y310329D01*
X1465351Y310320D01*
X1465649Y310276D01*
X2222539Y310276D01*
X2223138Y310342D01*
X2223737Y310387D01*
X2223849Y310420D01*
X2223965Y310433D01*
X2224536Y310628D01*
X2225110Y310802D01*
X2225212Y310859D01*
X2225323Y310897D01*
X2225837Y311211D01*
X2226361Y311505D01*
X2226448Y311584D01*
X2226547Y311644D01*
X2226979Y312061D01*
X2227428Y312464D01*
X2227496Y312560D01*
X2227580Y312641D01*
X2227911Y313143D01*
X2228260Y313632D01*
X2228306Y313740D01*
X2228371Y313838D01*
X2228585Y314400D01*
X2228819Y314954D01*
X2228834Y315051D01*
X2228882Y315178D01*
X2229090Y316598D01*
X2229079Y316733D01*
X2229094Y316831D01*
X2229094Y962697D01*
X2229028Y963296D01*
X2228983Y963895D01*
X2228950Y964006D01*
X2228937Y964123D01*
X2228742Y964694D01*
X2228568Y965268D01*
X2228511Y965369D01*
X2228473Y965481D01*
X2228159Y965995D01*
X2227865Y966518D01*
X2227786Y966605D01*
X2227726Y966705D01*
X2227309Y967137D01*
X2226906Y967585D01*
X2226810Y967653D01*
X2226729Y967737D01*
X2226227Y968069D01*
X2225738Y968418D01*
X2225630Y968463D01*
X2225532Y968528D01*
X2224969Y968743D01*
X2224416Y968977D01*
X2224319Y968991D01*
X2224192Y969039D01*
X2222772Y969247D01*
X2222637Y969237D01*
X2222539Y969251D01*
X1658676Y969251D01*
X1658112Y969189D01*
X1657546Y969153D01*
X1657426Y969114D01*
X1657250Y969094D01*
X1655892Y968631D01*
X1655811Y968581D01*
X1655745Y968559D01*
X1654696Y968035D01*
X1652055Y968915D01*
X1651955Y968937D01*
X1651860Y968977D01*
X1651574Y969018D01*
X1650653Y969217D01*
X1650238Y969214D01*
X1649983Y969251D01*
X1647330Y969251D01*
X1646566Y970016D01*
X1646123Y970370D01*
X1645697Y970745D01*
X1645585Y970802D01*
X1645446Y970913D01*
X1644158Y971545D01*
X1644066Y971568D01*
X1644003Y971599D01*
X1642891Y971970D01*
X1641647Y974459D01*
X1641591Y974545D01*
X1641552Y974641D01*
X1641379Y974874D01*
X1640868Y975664D01*
X1640573Y975955D01*
X1640419Y976162D01*
X1638543Y978039D01*
X1638543Y979119D01*
X1638480Y979683D01*
X1638445Y980249D01*
X1638405Y980369D01*
X1638386Y980545D01*
X1637922Y981903D01*
X1637872Y981984D01*
X1637851Y982051D01*
X1587017Y1083719D01*
X1586734Y1084156D01*
X1586479Y1084609D01*
X1586346Y1084757D01*
X1586238Y1084924D01*
X1585869Y1085288D01*
X1585521Y1085676D01*
X1585358Y1085791D01*
X1585217Y1085931D01*
X1584776Y1086207D01*
X1584352Y1086508D01*
X1584169Y1086586D01*
X1584000Y1086692D01*
X1583510Y1086865D01*
X1583031Y1087067D01*
X1582870Y1087091D01*
X1582648Y1087169D01*
X1581223Y1087341D01*
X1581184Y1087337D01*
X1581154Y1087342D01*
X977901Y1087342D01*
X977384Y1087285D01*
X976865Y1087259D01*
X976673Y1087207D01*
X976475Y1087185D01*
X975982Y1087016D01*
X975481Y1086879D01*
X975306Y1086786D01*
X975117Y1086721D01*
X974673Y1086450D01*
X974214Y1086207D01*
X974063Y1086077D01*
X973893Y1085974D01*
X973519Y1085613D01*
X973123Y1085275D01*
X973030Y1085141D01*
X972860Y1084977D01*
X972070Y1083780D01*
X972055Y1083743D01*
X972038Y1083719D01*
X921204Y982051D01*
X921007Y981517D01*
X920787Y980996D01*
X920769Y980872D01*
X920707Y980705D01*
X920515Y979283D01*
X920523Y979189D01*
X920512Y979119D01*
X920512Y978039D01*
X918636Y976162D01*
X918572Y976082D01*
X918493Y976015D01*
X918328Y975778D01*
X917739Y975043D01*
X917556Y974671D01*
X917408Y974459D01*
X916164Y971970D01*
X915052Y971599D01*
X914536Y971362D01*
X914011Y971148D01*
X913910Y971073D01*
X913748Y970999D01*
X912607Y970130D01*
X912546Y970057D01*
X912489Y970016D01*
X911725Y969251D01*
X909072Y969251D01*
X908970Y969240D01*
X908867Y969248D01*
X908583Y969197D01*
X907646Y969094D01*
X907253Y968960D01*
X907000Y968915D01*
X904359Y968035D01*
X903310Y968559D01*
X902777Y968756D01*
X902256Y968977D01*
X902132Y968995D01*
X901965Y969057D01*
X900543Y969249D01*
X900448Y969241D01*
X900379Y969251D01*
X297146Y969251D01*
X296547Y969185D01*
X295948Y969141D01*
X295836Y969107D01*
X295719Y969094D01*
X295148Y968899D01*
X294575Y968726D01*
X294473Y968669D01*
X294362Y968631D01*
X293848Y968317D01*
X293324Y968022D01*
X293237Y967944D01*
X293138Y967883D01*
X292706Y967466D01*
X292257Y967063D01*
X292189Y966968D01*
X292105Y966887D01*
X291773Y966385D01*
X291424Y965895D01*
X291379Y965788D01*
X291314Y965690D01*
X291100Y965127D01*
X290866Y964574D01*
X290851Y964477D01*
X290803Y964349D01*
X290595Y962930D01*
X290605Y962794D01*
X290591Y962697D01*
X290591Y316831D01*
X290657Y316232D01*
X290702Y315633D01*
X290735Y315521D01*
X290748Y315405D01*
X290943Y314834D01*
X291117Y314260D01*
X291174Y314158D01*
X291212Y314047D01*
X291526Y313533D01*
X291820Y313009D01*
X291898Y312922D01*
X291959Y312823D01*
X292376Y312391D01*
X292779Y311942D01*
X292875Y311874D01*
X292956Y311790D01*
X293458Y311459D01*
X293947Y311109D01*
X294055Y311064D01*
X294153Y310999D01*
X294715Y310785D01*
X295269Y310551D01*
X295366Y310536D01*
X295493Y310488D01*
X296913Y310280D01*
X297048Y310290D01*
X297146Y310276D01*
X1073721Y310276D01*
X1073905Y310297D01*
G37*
%LPC*%
G36*
X1480693Y423054D02*
X1480693Y423054D01*
X1474117Y425778D01*
X1469085Y430810D01*
X1466361Y437386D01*
X1466361Y444503D01*
X1469085Y451079D01*
X1474118Y456112D01*
X1479516Y458348D01*
X1479546Y458364D01*
X1479579Y458374D01*
X1480174Y458709D01*
X1480773Y459039D01*
X1480799Y459061D01*
X1480829Y459078D01*
X1481340Y459537D01*
X1481851Y459986D01*
X1481871Y460014D01*
X1481896Y460037D01*
X1482291Y460591D01*
X1482695Y461146D01*
X1482709Y461177D01*
X1482729Y461205D01*
X1482993Y461828D01*
X1483268Y462461D01*
X1483274Y462495D01*
X1483288Y462526D01*
X1483310Y462679D01*
X1483540Y463870D01*
X1483531Y464192D01*
X1483562Y464403D01*
X1483562Y799194D01*
X1483542Y799378D01*
X1483552Y799563D01*
X1483464Y800088D01*
X1483405Y800620D01*
X1483345Y800795D01*
X1483315Y800978D01*
X1483114Y801472D01*
X1482942Y801977D01*
X1482845Y802136D01*
X1482776Y802307D01*
X1482580Y802569D01*
X1482194Y803202D01*
X1481822Y803587D01*
X1481642Y803828D01*
X1473120Y812351D01*
X1472976Y812467D01*
X1472851Y812605D01*
X1472416Y812915D01*
X1472000Y813249D01*
X1471834Y813330D01*
X1471683Y813438D01*
X1471192Y813645D01*
X1470712Y813881D01*
X1470532Y813924D01*
X1470362Y813996D01*
X1470038Y814044D01*
X1469318Y814218D01*
X1468783Y814227D01*
X1468485Y814271D01*
X940964Y814271D01*
X940779Y814251D01*
X940595Y814260D01*
X940069Y814172D01*
X939538Y814114D01*
X939362Y814054D01*
X939180Y814023D01*
X938686Y813823D01*
X938180Y813650D01*
X938022Y813554D01*
X937850Y813484D01*
X937588Y813289D01*
X936956Y812903D01*
X936571Y812531D01*
X936329Y812351D01*
X712724Y588746D01*
X712608Y588602D01*
X712470Y588477D01*
X712159Y588042D01*
X711826Y587626D01*
X711744Y587460D01*
X711637Y587309D01*
X711429Y586818D01*
X711194Y586338D01*
X711150Y586158D01*
X711078Y585988D01*
X711031Y585664D01*
X710857Y584944D01*
X710847Y584409D01*
X710804Y584111D01*
X710804Y583055D01*
X708080Y576480D01*
X703048Y571447D01*
X696472Y568724D01*
X689355Y568724D01*
X682779Y571447D01*
X677747Y576480D01*
X675023Y583055D01*
X675023Y590173D01*
X677747Y596749D01*
X682779Y601781D01*
X689355Y604505D01*
X690410Y604505D01*
X690595Y604525D01*
X690779Y604515D01*
X691305Y604603D01*
X691836Y604662D01*
X692012Y604721D01*
X692194Y604752D01*
X692688Y604952D01*
X693194Y605125D01*
X693352Y605222D01*
X693524Y605291D01*
X693786Y605487D01*
X694418Y605873D01*
X694803Y606244D01*
X695045Y606424D01*
X918650Y830029D01*
X918650Y830030D01*
X921573Y832952D01*
X921761Y833187D01*
X921978Y833397D01*
X922209Y833746D01*
X922470Y834071D01*
X922603Y834342D01*
X922769Y834594D01*
X922918Y834984D01*
X923102Y835359D01*
X923173Y835653D01*
X923281Y835934D01*
X923341Y836347D01*
X923439Y836753D01*
X923445Y837055D01*
X923488Y837354D01*
X923457Y837770D01*
X923465Y838188D01*
X923404Y838483D01*
X923382Y838784D01*
X923261Y839184D01*
X923178Y839594D01*
X923054Y839869D01*
X922967Y840158D01*
X922762Y840521D01*
X922592Y840903D01*
X922411Y841145D01*
X922263Y841408D01*
X921984Y841719D01*
X921734Y842054D01*
X921506Y842250D01*
X921304Y842475D01*
X920964Y842718D01*
X920648Y842990D01*
X920382Y843133D01*
X920136Y843308D01*
X919752Y843470D01*
X919383Y843668D01*
X919092Y843749D01*
X918815Y843867D01*
X918517Y843910D01*
X918002Y844054D01*
X917262Y844094D01*
X916938Y844141D01*
X824968Y844141D01*
X824635Y844104D01*
X824299Y844107D01*
X824022Y844037D01*
X823542Y843984D01*
X822770Y843720D01*
X822460Y843642D01*
X812392Y839472D01*
X801781Y839472D01*
X791979Y843532D01*
X784477Y851034D01*
X780417Y860837D01*
X780417Y871447D01*
X784477Y881249D01*
X791979Y888751D01*
X801781Y892812D01*
X812392Y892812D01*
X822460Y888641D01*
X822782Y888547D01*
X823091Y888417D01*
X823373Y888375D01*
X823837Y888241D01*
X824651Y888189D01*
X824968Y888142D01*
X1163221Y888142D01*
X1163554Y888179D01*
X1163890Y888177D01*
X1164167Y888246D01*
X1164647Y888299D01*
X1165419Y888563D01*
X1165729Y888641D01*
X1175797Y892812D01*
X1186407Y892812D01*
X1196210Y888751D01*
X1203712Y881249D01*
X1207772Y871447D01*
X1207772Y860837D01*
X1203712Y851034D01*
X1203139Y850461D01*
X1202950Y850226D01*
X1202733Y850016D01*
X1202503Y849668D01*
X1202242Y849342D01*
X1202109Y849071D01*
X1201942Y848820D01*
X1201793Y848429D01*
X1201609Y848054D01*
X1201539Y847761D01*
X1201431Y847479D01*
X1201370Y847066D01*
X1201272Y846660D01*
X1201267Y846358D01*
X1201223Y846060D01*
X1201254Y845643D01*
X1201247Y845226D01*
X1201307Y844930D01*
X1201329Y844629D01*
X1201450Y844229D01*
X1201534Y843820D01*
X1201657Y843544D01*
X1201744Y843256D01*
X1201949Y842892D01*
X1202120Y842510D01*
X1202300Y842269D01*
X1202448Y842005D01*
X1202728Y841694D01*
X1202977Y841360D01*
X1203205Y841163D01*
X1203407Y840938D01*
X1203747Y840696D01*
X1204064Y840423D01*
X1204330Y840281D01*
X1204575Y840106D01*
X1204959Y839943D01*
X1205328Y839746D01*
X1205619Y839664D01*
X1205897Y839547D01*
X1206195Y839503D01*
X1206710Y839359D01*
X1207450Y839320D01*
X1207773Y839272D01*
X1481556Y839272D01*
X1508564Y812265D01*
X1508564Y447578D01*
X1504062Y443076D01*
X1503947Y442932D01*
X1503808Y442808D01*
X1503498Y442373D01*
X1503165Y441957D01*
X1503083Y441791D01*
X1502976Y441640D01*
X1502768Y441149D01*
X1502532Y440669D01*
X1502489Y440489D01*
X1502417Y440319D01*
X1502369Y439995D01*
X1502195Y439275D01*
X1502186Y438740D01*
X1502142Y438442D01*
X1502142Y437386D01*
X1499419Y430810D01*
X1494386Y425778D01*
X1487811Y423054D01*
X1480693Y423054D01*
G37*
%LPD*%
%LPC*%
G36*
X2160107Y402867D02*
X2160107Y402867D01*
X2159999Y402912D01*
X2159901Y402977D01*
X2159339Y403192D01*
X2158785Y403426D01*
X2158688Y403440D01*
X2158561Y403488D01*
X2157142Y403696D01*
X2157006Y403686D01*
X2156909Y403700D01*
X2114351Y403700D01*
X2114511Y404706D01*
X2116797Y411743D01*
X2117006Y412153D01*
X2117007Y412154D01*
X2120156Y418334D01*
X2124504Y424320D01*
X2129735Y429551D01*
X2135721Y433899D01*
X2142312Y437258D01*
X2149349Y439544D01*
X2154885Y440421D01*
X2155227Y440515D01*
X2155579Y440570D01*
X2155918Y440703D01*
X2156269Y440799D01*
X2156584Y440965D01*
X2156914Y441095D01*
X2157215Y441299D01*
X2157538Y441469D01*
X2157808Y441699D01*
X2158102Y441898D01*
X2158353Y442163D01*
X2158630Y442399D01*
X2158844Y442683D01*
X2159088Y442941D01*
X2159274Y443254D01*
X2159494Y443545D01*
X2159641Y443869D01*
X2159823Y444173D01*
X2159937Y444519D01*
X2160088Y444851D01*
X2160161Y445198D01*
X2160272Y445535D01*
X2160308Y445899D01*
X2160383Y446255D01*
X2160379Y446609D01*
X2160414Y446963D01*
X2160371Y447325D01*
X2160366Y447689D01*
X2160285Y448034D01*
X2160242Y448387D01*
X2160121Y448732D01*
X2160038Y449086D01*
X2159883Y449405D01*
X2159765Y449740D01*
X2159571Y450049D01*
X2159413Y450377D01*
X2159193Y450655D01*
X2159004Y450957D01*
X2158749Y451216D01*
X2158522Y451502D01*
X2158246Y451726D01*
X2157997Y451978D01*
X2157762Y452119D01*
X2157408Y452406D01*
X2156636Y452791D01*
X2156368Y452950D01*
X2145996Y457247D01*
X2133900Y469343D01*
X2130665Y477154D01*
X2130648Y477184D01*
X2130638Y477217D01*
X2130303Y477812D01*
X2129974Y478411D01*
X2129951Y478437D01*
X2129934Y478467D01*
X2129475Y478978D01*
X2129026Y479488D01*
X2128998Y479508D01*
X2128976Y479534D01*
X2128422Y479929D01*
X2127867Y480333D01*
X2127835Y480347D01*
X2127807Y480367D01*
X2127184Y480630D01*
X2126551Y480906D01*
X2126517Y480912D01*
X2126486Y480926D01*
X2126334Y480948D01*
X2125143Y481178D01*
X2124820Y481169D01*
X2124609Y481200D01*
X1922381Y481200D01*
X1768395Y635186D01*
X1768251Y635301D01*
X1768127Y635439D01*
X1767692Y635750D01*
X1767276Y636083D01*
X1767110Y636165D01*
X1766959Y636272D01*
X1766468Y636480D01*
X1765988Y636715D01*
X1765808Y636759D01*
X1765638Y636831D01*
X1765314Y636878D01*
X1764594Y637052D01*
X1764059Y637062D01*
X1763761Y637106D01*
X1707168Y637106D01*
X1706868Y637073D01*
X1706567Y637078D01*
X1706158Y636994D01*
X1705742Y636949D01*
X1705457Y636851D01*
X1705161Y636791D01*
X1704781Y636620D01*
X1704385Y636485D01*
X1704127Y636328D01*
X1703852Y636205D01*
X1703517Y635955D01*
X1703160Y635737D01*
X1702943Y635528D01*
X1702701Y635348D01*
X1702429Y635031D01*
X1702128Y634741D01*
X1701962Y634489D01*
X1701765Y634261D01*
X1701568Y633893D01*
X1701337Y633544D01*
X1701230Y633262D01*
X1701087Y632996D01*
X1700975Y632594D01*
X1700826Y632204D01*
X1700782Y631905D01*
X1700701Y631615D01*
X1700679Y631197D01*
X1700618Y630784D01*
X1700641Y630483D01*
X1700625Y630182D01*
X1700694Y629770D01*
X1700724Y629353D01*
X1700812Y629065D01*
X1700861Y628767D01*
X1701019Y628379D01*
X1701139Y627980D01*
X1701287Y627718D01*
X1701401Y627438D01*
X1701581Y627196D01*
X1701843Y626730D01*
X1702338Y626179D01*
X1702534Y625916D01*
X1708080Y620370D01*
X1710804Y613795D01*
X1710804Y606678D01*
X1708080Y600102D01*
X1707334Y599356D01*
X1707218Y599212D01*
X1707080Y599087D01*
X1706770Y598652D01*
X1706436Y598236D01*
X1706355Y598070D01*
X1706247Y597919D01*
X1706039Y597428D01*
X1705804Y596948D01*
X1705761Y596768D01*
X1705688Y596598D01*
X1705641Y596274D01*
X1705467Y595554D01*
X1705458Y595019D01*
X1705414Y594721D01*
X1705414Y526318D01*
X1693039Y513942D01*
X1692923Y513798D01*
X1692785Y513674D01*
X1692474Y513239D01*
X1692141Y512823D01*
X1692059Y512657D01*
X1691952Y512506D01*
X1691744Y512015D01*
X1691509Y511535D01*
X1691465Y511355D01*
X1691393Y511185D01*
X1691346Y510861D01*
X1691172Y510141D01*
X1691162Y509606D01*
X1691119Y509308D01*
X1691119Y508252D01*
X1688395Y501677D01*
X1683363Y496644D01*
X1676787Y493921D01*
X1669670Y493921D01*
X1663094Y496644D01*
X1658062Y501677D01*
X1655338Y508252D01*
X1655338Y515370D01*
X1658062Y521945D01*
X1663094Y526978D01*
X1669670Y529701D01*
X1670725Y529701D01*
X1670910Y529722D01*
X1671094Y529712D01*
X1671620Y529800D01*
X1672151Y529858D01*
X1672327Y529918D01*
X1672509Y529949D01*
X1673003Y530149D01*
X1673509Y530322D01*
X1673667Y530419D01*
X1673839Y530488D01*
X1674101Y530683D01*
X1674733Y531070D01*
X1675118Y531441D01*
X1675360Y531621D01*
X1678493Y534754D01*
X1678608Y534898D01*
X1678747Y535023D01*
X1679057Y535458D01*
X1679390Y535874D01*
X1679472Y536040D01*
X1679579Y536191D01*
X1679787Y536682D01*
X1680023Y537161D01*
X1680066Y537342D01*
X1680138Y537512D01*
X1680186Y537836D01*
X1680359Y538556D01*
X1680369Y539090D01*
X1680413Y539389D01*
X1680413Y594721D01*
X1680392Y594905D01*
X1680402Y595090D01*
X1680314Y595616D01*
X1680256Y596147D01*
X1680196Y596322D01*
X1680165Y596505D01*
X1679965Y596999D01*
X1679792Y597505D01*
X1679695Y597663D01*
X1679626Y597834D01*
X1679431Y598097D01*
X1679044Y598729D01*
X1678673Y599114D01*
X1678493Y599356D01*
X1677747Y600102D01*
X1675023Y606678D01*
X1675023Y614257D01*
X1674973Y614706D01*
X1674961Y615158D01*
X1674895Y615417D01*
X1674866Y615683D01*
X1674720Y616111D01*
X1674609Y616549D01*
X1674489Y616788D01*
X1674402Y617041D01*
X1674166Y617427D01*
X1673963Y617830D01*
X1673794Y618036D01*
X1673655Y618265D01*
X1673341Y618590D01*
X1673055Y618940D01*
X1672844Y619105D01*
X1672658Y619297D01*
X1672281Y619547D01*
X1671926Y619825D01*
X1671685Y619941D01*
X1671461Y620088D01*
X1671039Y620250D01*
X1670632Y620444D01*
X1670371Y620504D01*
X1670121Y620600D01*
X1669674Y620665D01*
X1669234Y620767D01*
X1668966Y620769D01*
X1668702Y620807D01*
X1668251Y620774D01*
X1667799Y620777D01*
X1667593Y620725D01*
X1667271Y620701D01*
X1666110Y620351D01*
X1665960Y620313D01*
X1664976Y619905D01*
X1657859Y619905D01*
X1651283Y622629D01*
X1646251Y627661D01*
X1643527Y634237D01*
X1643527Y641354D01*
X1646251Y647930D01*
X1651283Y652962D01*
X1657859Y655686D01*
X1658914Y655686D01*
X1659098Y655706D01*
X1659283Y655696D01*
X1659810Y655784D01*
X1660340Y655843D01*
X1660516Y655903D01*
X1660698Y655933D01*
X1661192Y656133D01*
X1661698Y656306D01*
X1661856Y656403D01*
X1662027Y656472D01*
X1662289Y656667D01*
X1662922Y657054D01*
X1663307Y657425D01*
X1663549Y657605D01*
X1667820Y661877D01*
X1667915Y661995D01*
X1668028Y662095D01*
X1668037Y662107D01*
X1776832Y662107D01*
X1786074Y652865D01*
X1786074Y652864D01*
X1930817Y508121D01*
X1930961Y508006D01*
X1931086Y507867D01*
X1931521Y507557D01*
X1931937Y507224D01*
X1932103Y507142D01*
X1932254Y507035D01*
X1932745Y506827D01*
X1933224Y506592D01*
X1933405Y506548D01*
X1933575Y506476D01*
X1933899Y506429D01*
X1934619Y506255D01*
X1935153Y506245D01*
X1935452Y506201D01*
X2124609Y506201D01*
X2124643Y506205D01*
X2124677Y506202D01*
X2125356Y506284D01*
X2126035Y506358D01*
X2126068Y506369D01*
X2126102Y506374D01*
X2126745Y506601D01*
X2127393Y506822D01*
X2127422Y506840D01*
X2127454Y506851D01*
X2128034Y507213D01*
X2128617Y507570D01*
X2128642Y507593D01*
X2128671Y507612D01*
X2129159Y508093D01*
X2129649Y508566D01*
X2129668Y508595D01*
X2129693Y508619D01*
X2129772Y508751D01*
X2130440Y509763D01*
X2130555Y510064D01*
X2130665Y510248D01*
X2133900Y518059D01*
X2145996Y530155D01*
X2161801Y536701D01*
X2178908Y536701D01*
X2194712Y530155D01*
X2206808Y518059D01*
X2213355Y502254D01*
X2213355Y485147D01*
X2206808Y469343D01*
X2194712Y457247D01*
X2178908Y450700D01*
X2178408Y450700D01*
X2178003Y450655D01*
X2177594Y450649D01*
X2177291Y450577D01*
X2176982Y450543D01*
X2176596Y450411D01*
X2176199Y450316D01*
X2175919Y450180D01*
X2175625Y450080D01*
X2175276Y449867D01*
X2174909Y449688D01*
X2174666Y449494D01*
X2174400Y449332D01*
X2174106Y449048D01*
X2173787Y448794D01*
X2173592Y448552D01*
X2173368Y448336D01*
X2173143Y447994D01*
X2172887Y447677D01*
X2172749Y447398D01*
X2172577Y447139D01*
X2172431Y446757D01*
X2172251Y446391D01*
X2172177Y446089D01*
X2172066Y445798D01*
X2172007Y445394D01*
X2171910Y444998D01*
X2171903Y444686D01*
X2171858Y444379D01*
X2171888Y443972D01*
X2171880Y443563D01*
X2171941Y443259D01*
X2171964Y442948D01*
X2172083Y442557D01*
X2172163Y442157D01*
X2172289Y441873D01*
X2172379Y441575D01*
X2172580Y441219D01*
X2172745Y440846D01*
X2172930Y440596D01*
X2173083Y440324D01*
X2173356Y440020D01*
X2173599Y439693D01*
X2173834Y439489D01*
X2174042Y439257D01*
X2174375Y439020D01*
X2174683Y438753D01*
X2174900Y438645D01*
X2175210Y438425D01*
X2176153Y438026D01*
X2176383Y437912D01*
X2178397Y437258D01*
X2184988Y433899D01*
X2190973Y429551D01*
X2196204Y424320D01*
X2200553Y418334D01*
X2203911Y411743D01*
X2206198Y404706D01*
X2206357Y403700D01*
X2163800Y403700D01*
X2163201Y403634D01*
X2162602Y403590D01*
X2162490Y403556D01*
X2162374Y403543D01*
X2161803Y403348D01*
X2161229Y403175D01*
X2161127Y403118D01*
X2161016Y403080D01*
X2160502Y402766D01*
X2160360Y402686D01*
X2160107Y402867D01*
G37*
%LPD*%
%LPC*%
G36*
X2161801Y650700D02*
X2161801Y650700D01*
X2145996Y657247D01*
X2133900Y669343D01*
X2132622Y672430D01*
X2132605Y672460D01*
X2132595Y672492D01*
X2132260Y673088D01*
X2131931Y673687D01*
X2131908Y673712D01*
X2131891Y673742D01*
X2131429Y674257D01*
X2130983Y674764D01*
X2130956Y674784D01*
X2130932Y674810D01*
X2130371Y675210D01*
X2129824Y675609D01*
X2129792Y675622D01*
X2129764Y675642D01*
X2129136Y675908D01*
X2128508Y676181D01*
X2128474Y676188D01*
X2128443Y676201D01*
X2128291Y676223D01*
X2127100Y676454D01*
X2126777Y676445D01*
X2126566Y676476D01*
X1669058Y676476D01*
X1668875Y676455D01*
X1668690Y676465D01*
X1668163Y676377D01*
X1667632Y676319D01*
X1667457Y676259D01*
X1667275Y676228D01*
X1666781Y676028D01*
X1666275Y675855D01*
X1666116Y675758D01*
X1665945Y675689D01*
X1665683Y675494D01*
X1665050Y675107D01*
X1664666Y674736D01*
X1664424Y674556D01*
X1663164Y673296D01*
X1662975Y673061D01*
X1662962Y673048D01*
X1662817Y673056D01*
X1662668Y673031D01*
X1662516Y673032D01*
X1662206Y672953D01*
X1661402Y672819D01*
X1660955Y672637D01*
X1660677Y672567D01*
X1657102Y671086D01*
X1649985Y671086D01*
X1643409Y673810D01*
X1638377Y678842D01*
X1635653Y685418D01*
X1635653Y692535D01*
X1638377Y699111D01*
X1643409Y704143D01*
X1649985Y706867D01*
X1657102Y706867D01*
X1663678Y704143D01*
X1664424Y703397D01*
X1664568Y703281D01*
X1664692Y703143D01*
X1665127Y702833D01*
X1665543Y702499D01*
X1665710Y702418D01*
X1665860Y702310D01*
X1666352Y702102D01*
X1666831Y701867D01*
X1667011Y701824D01*
X1667182Y701751D01*
X1667506Y701704D01*
X1668225Y701530D01*
X1668760Y701521D01*
X1669058Y701477D01*
X2122652Y701477D01*
X2122686Y701481D01*
X2122720Y701477D01*
X2123399Y701559D01*
X2124078Y701634D01*
X2124111Y701645D01*
X2124145Y701649D01*
X2124788Y701876D01*
X2125436Y702097D01*
X2125465Y702115D01*
X2125497Y702127D01*
X2126077Y702489D01*
X2126660Y702845D01*
X2126685Y702869D01*
X2126714Y702887D01*
X2127202Y703368D01*
X2127693Y703842D01*
X2127711Y703870D01*
X2127736Y703894D01*
X2127815Y704027D01*
X2128483Y705039D01*
X2128598Y705340D01*
X2128708Y705523D01*
X2133900Y718059D01*
X2145996Y730155D01*
X2161801Y736701D01*
X2178908Y736701D01*
X2194712Y730155D01*
X2206808Y718059D01*
X2213355Y702254D01*
X2213355Y685147D01*
X2206808Y669343D01*
X2194712Y657247D01*
X2178908Y650700D01*
X2161801Y650700D01*
G37*
%LPD*%
%LPC*%
G36*
X1348139Y960936D02*
X1348139Y960936D01*
X1332335Y967483D01*
X1320239Y979579D01*
X1313692Y995383D01*
X1313692Y1012490D01*
X1320239Y1028295D01*
X1332335Y1040391D01*
X1348139Y1046938D01*
X1365246Y1046938D01*
X1381051Y1040391D01*
X1393147Y1028295D01*
X1399694Y1012490D01*
X1399694Y995383D01*
X1393147Y979579D01*
X1381051Y967483D01*
X1365246Y960936D01*
X1348139Y960936D01*
G37*
%LPD*%
%LPC*%
G36*
X2151801Y550700D02*
X2151801Y550700D01*
X2135996Y557247D01*
X2123900Y569343D01*
X2117354Y585147D01*
X2117354Y602254D01*
X2123900Y618059D01*
X2135996Y630155D01*
X2151801Y636701D01*
X2168908Y636701D01*
X2184712Y630155D01*
X2196808Y618059D01*
X2203355Y602254D01*
X2203355Y585147D01*
X2196808Y569343D01*
X2184712Y557247D01*
X2168908Y550700D01*
X2151801Y550700D01*
G37*
%LPD*%
%LPC*%
G36*
X1448139Y960936D02*
X1448139Y960936D01*
X1432335Y967483D01*
X1420239Y979579D01*
X1413692Y995383D01*
X1413692Y1012490D01*
X1420239Y1028295D01*
X1432335Y1040391D01*
X1448139Y1046938D01*
X1465246Y1046938D01*
X1481051Y1040391D01*
X1493147Y1028295D01*
X1499694Y1012490D01*
X1499694Y995383D01*
X1493147Y979579D01*
X1481051Y967483D01*
X1465246Y960936D01*
X1448139Y960936D01*
G37*
%LPD*%
%LPC*%
G36*
X2151801Y750700D02*
X2151801Y750700D01*
X2135996Y757247D01*
X2123900Y769343D01*
X2117354Y785147D01*
X2117354Y802254D01*
X2123900Y818059D01*
X2135996Y830155D01*
X2151801Y836701D01*
X2168908Y836701D01*
X2184712Y830155D01*
X2196808Y818059D01*
X2203355Y802254D01*
X2203355Y785147D01*
X2196808Y769343D01*
X2184712Y757247D01*
X2168908Y750700D01*
X2151801Y750700D01*
G37*
%LPD*%
%LPC*%
G36*
X1945260Y749826D02*
X1945260Y749826D01*
X1938684Y752550D01*
X1937938Y753296D01*
X1937794Y753411D01*
X1937670Y753550D01*
X1937235Y753860D01*
X1936819Y754193D01*
X1936653Y754275D01*
X1936502Y754383D01*
X1936011Y754590D01*
X1935531Y754826D01*
X1935351Y754869D01*
X1935180Y754941D01*
X1934857Y754989D01*
X1934137Y755163D01*
X1933602Y755172D01*
X1933304Y755216D01*
X1872775Y755216D01*
X1865452Y762538D01*
X1865452Y772895D01*
X1872775Y780217D01*
X1933304Y780217D01*
X1933488Y780237D01*
X1933673Y780228D01*
X1934198Y780316D01*
X1934730Y780374D01*
X1934905Y780434D01*
X1935088Y780465D01*
X1935582Y780665D01*
X1936087Y780838D01*
X1936246Y780934D01*
X1936417Y781004D01*
X1936679Y781199D01*
X1937312Y781585D01*
X1937697Y781957D01*
X1937938Y782137D01*
X1938684Y782883D01*
X1945260Y785607D01*
X1952377Y785607D01*
X1958953Y782883D01*
X1963985Y777851D01*
X1966709Y771275D01*
X1966709Y764158D01*
X1963985Y757582D01*
X1958953Y752550D01*
X1952377Y749826D01*
X1945260Y749826D01*
G37*
%LPD*%
%LPC*%
G36*
X1039748Y986047D02*
X1039748Y986047D01*
X1033173Y988770D01*
X1032426Y989516D01*
X1032282Y989632D01*
X1032158Y989770D01*
X1031723Y990081D01*
X1031307Y990414D01*
X1031141Y990496D01*
X1030990Y990603D01*
X1030499Y990811D01*
X1030019Y991046D01*
X1029839Y991090D01*
X1029669Y991162D01*
X1029345Y991209D01*
X1028625Y991383D01*
X1028090Y991393D01*
X1027792Y991436D01*
X1027086Y991436D01*
X1019763Y998759D01*
X1019763Y1009115D01*
X1027086Y1016438D01*
X1027792Y1016438D01*
X1027976Y1016458D01*
X1028161Y1016448D01*
X1028687Y1016536D01*
X1029218Y1016595D01*
X1029393Y1016654D01*
X1029576Y1016685D01*
X1030070Y1016885D01*
X1030576Y1017058D01*
X1030734Y1017155D01*
X1030905Y1017224D01*
X1031168Y1017420D01*
X1031800Y1017806D01*
X1032185Y1018178D01*
X1032426Y1018357D01*
X1033173Y1019104D01*
X1039748Y1021827D01*
X1046866Y1021827D01*
X1053441Y1019104D01*
X1058474Y1014071D01*
X1061197Y1007496D01*
X1061197Y1000378D01*
X1058474Y993803D01*
X1053441Y988770D01*
X1046866Y986047D01*
X1039748Y986047D01*
G37*
%LPD*%
%LPC*%
G36*
X2170354Y383701D02*
X2170354Y383701D01*
X2206357Y383701D01*
X2206198Y382695D01*
X2203911Y375658D01*
X2202179Y372259D01*
X2202179Y372258D01*
X2200553Y369067D01*
X2196204Y363082D01*
X2190973Y357851D01*
X2184988Y353502D01*
X2178397Y350144D01*
X2171360Y347857D01*
X2170354Y347698D01*
X2170354Y383701D01*
G37*
%LPD*%
%LPC*%
G36*
X2149349Y347857D02*
X2149349Y347857D01*
X2142312Y350144D01*
X2135721Y353502D01*
X2129735Y357851D01*
X2124504Y363082D01*
X2120156Y369067D01*
X2116797Y375658D01*
X2114511Y382695D01*
X2114351Y383701D01*
X2150355Y383701D01*
X2150355Y347698D01*
X2149349Y347857D01*
G37*
%LPD*%
D10*
X1456693Y1003937D03*
X1356693Y1003937D03*
X2160354Y393701D03*
X2170354Y493701D03*
X2160354Y593701D03*
X2170354Y693701D03*
X2160354Y793701D03*
D11*
X807087Y866142D03*
X1181102Y866142D03*
D12*
X807087Y866142D01*
D13*
X1732283Y748031D03*
X1814961Y433071D03*
X1279528Y1019685D03*
X1059055Y755906D03*
X1043307Y1003937D03*
D14*
X1032264Y1003937D01*
D13*
X692913Y586614D03*
D14*
X933071Y826772D01*
X1476378Y826772D02*
X1496063Y807087D01*
X1496063Y452756D01*
X1484252Y440945D01*
D13*
X1484252Y440945D03*
D14*
X1476378Y826772D02*
X933071Y826772D01*
X1927559Y493701D02*
X2170354Y493701D01*
X1927559Y493701D02*
X1771654Y649606D01*
X1673228Y649606D01*
X1661417Y637795D01*
D13*
X1661417Y637795D03*
X1653543Y688976D03*
D14*
X2165630Y688976D01*
X2170354Y693701D01*
X1948819Y767717D02*
X1877953Y767717D01*
D13*
X1948819Y767717D03*
X1673228Y511811D03*
D14*
X1692913Y531496D01*
X1692913Y610236D01*
D13*
X1692913Y610236D03*
M02*
