G04 EAGLE Gerber X2 export*
%TF.Part,Single*%
%TF.FileFunction,Soldermask,Top*%
%TF.FilePolarity,Negative*%
%TF.GenerationSoftware,Autodesk,EAGLE,9.1.3*%
%TF.CreationDate,2019-06-09T19:50:33Z*%
G75*
%MOIN*%
%FSLAX36Y36*%
%LPD*%
%AMOC8*
5,1,8,0,0,1.08239X$1,22.5*%
G01*
%ADD10R,0.075866X0.060118*%
%ADD11R,0.060118X0.079803*%
%ADD12R,0.036496X0.064055*%
%ADD13R,0.038465X0.018780*%
%ADD14R,0.042402X0.042402*%
%ADD15C,0.079000*%
%ADD16R,0.105000X0.042000*%
%ADD17C,0.015748*%
%ADD18R,0.068898X0.068898*%
%ADD19R,0.027559X0.015748*%
%ADD20R,0.015748X0.027559*%
%ADD21R,0.083740X0.052244*%
%ADD22R,0.048307X0.044370*%
%ADD23C,0.046339*%
%ADD24C,0.028780*%


D10*
X618110Y910630D03*
X393701Y910630D03*
D11*
X330709Y392913D03*
X843425Y353543D03*
D12*
X662371Y496488D03*
X618203Y512226D03*
X576626Y499078D03*
X533599Y494004D03*
X492092Y500078D03*
X448065Y494364D03*
X404398Y500438D03*
X362171Y500438D03*
D13*
X1174803Y981890D03*
X1174803Y1033071D03*
X1088189Y1007480D03*
D14*
X1237402Y970079D03*
X1237402Y1029134D03*
D15*
X1456693Y1003937D03*
X1356693Y1003937D03*
D16*
X982677Y651181D03*
X982677Y601181D03*
X982677Y551181D03*
X982677Y501181D03*
X982677Y451181D03*
X982677Y701181D03*
X982677Y751181D03*
X982677Y801181D03*
X982677Y401181D03*
X1577677Y651181D03*
X1577677Y601181D03*
X1577677Y551181D03*
X1577677Y501181D03*
X1577677Y451181D03*
X1577677Y701181D03*
X1577677Y751181D03*
X1577677Y801181D03*
X1577677Y401181D03*
D15*
X2160354Y393701D03*
X2170354Y493701D03*
X2160354Y593701D03*
X2170354Y693701D03*
X2160354Y793701D03*
D17*
X1917323Y521654D03*
X1917323Y541339D03*
X1917323Y561024D03*
X1917323Y580709D03*
X1899606Y598425D03*
X1879921Y598425D03*
X1860236Y598425D03*
X1840551Y598425D03*
X1822835Y580709D03*
X1822835Y561024D03*
X1822835Y541339D03*
X1822835Y521654D03*
X1840551Y503937D03*
X1860236Y503937D03*
X1879921Y503937D03*
X1899606Y503937D03*
D18*
X1870079Y551181D03*
D19*
X1931102Y521654D03*
X1931102Y541339D03*
X1931102Y561024D03*
X1931102Y580709D03*
D20*
X1899606Y612205D03*
X1879921Y612205D03*
X1860236Y612205D03*
X1840551Y612205D03*
D19*
X1809055Y580709D03*
X1809055Y561024D03*
X1809055Y541339D03*
X1809055Y521654D03*
D20*
X1840551Y490157D03*
X1860236Y490157D03*
X1879921Y490157D03*
X1899606Y490157D03*
D21*
X2027559Y614173D03*
X2027559Y488189D03*
D22*
X1864173Y767717D03*
X1797244Y767717D03*
X1824803Y688976D03*
X1757874Y688976D03*
X1994094Y681102D03*
X1927165Y681102D03*
D23*
X807087Y866142D03*
X1181102Y866142D03*
D24*
X1732283Y748031D03*
X1814961Y433071D03*
X1279528Y1019685D03*
X1059055Y755906D03*
X1043307Y1003937D03*
X692913Y586614D03*
X1484252Y440945D03*
X1661417Y637795D03*
X1653543Y688976D03*
X1948819Y767717D03*
X1673228Y511811D03*
X1692913Y610236D03*
M02*
